<svg width="67" height="67" viewBox="0 0 67 67" fill="none" xmlns="http://www.w3.org/2000/svg">
    <rect opacity="0.1" width="67" height="67" rx="14" fill="#6B46C1"/>
    <path d="M21.5001 38C21.5001 39.2 22.8335 42.1667 23.5001 43.5V44.5H35.0001C39.5001 41.8333 48.5001 34.3 48.5001 25.5C48.5001 16.7 39.5001 16.8333 35.0001 18L21.5 30.5C20.8334 32.8333 21.5001 36.8 21.5001 38Z" fill="#D6BCFA"/>
    <path d="M46.1756 33.3862C47.9757 31.5861 48.987 29.1446 48.987 26.5988C48.987 24.0531 47.9757 21.6116 46.1756 19.8114C44.3755 18.0113 41.934 17 39.3882 17C36.8424 17 34.4009 18.0113 32.6008 19.8114L21.8081 30.6041V44.1949H35.3989L46.1756 33.3862Z" stroke="#805AD5" stroke-width="3" stroke-linecap="round" stroke-linejoin="round"/>
    <path d="M39.3962 26.6069L17.0114 48.9917" stroke="#805AD5" stroke-width="3" stroke-linecap="round" stroke-linejoin="round"/>
    <path d="M41.7945 37.7993H28.2037" stroke="#805AD5" stroke-width="3" stroke-linecap="round" stroke-linejoin="round"/>
</svg>
